<?xml version="1.0" encoding="UTF-8" standalone="no"?>
<svg
   xmlns:dc="http://purl.org/dc/elements/1.1/"
   xmlns:cc="http://creativecommons.org/ns#"
   xmlns:rdf="http://www.w3.org/1999/02/22-rdf-syntax-ns#"
   xmlns:svg="http://www.w3.org/2000/svg"
   xmlns="http://www.w3.org/2000/svg"
   xmlns:sodipodi="http://sodipodi.sourceforge.net/DTD/sodipodi-0.dtd"
   xmlns:inkscape="http://www.inkscape.org/namespaces/inkscape"
   inkscape:version="1.0 (4035a4f, 2020-05-01)"
   inkscape:export-ydpi="600"
   inkscape:export-xdpi="600"
   inkscape:export-filename="/Users/jurquiza/Documents/polygen/polygen_scripts/static/CEPLAS.png"
   height="60"
   width="70"
   sodipodi:docname="CEPLAS2.svg"
   id="svg116"
   version="1.1"
   viewBox="0 0 70 59.999999">
  <metadata
     id="metadata120">
    <rdf:RDF>
      <cc:Work
         rdf:about="">
        <dc:format>image/svg+xml</dc:format>
        <dc:type
           rdf:resource="http://purl.org/dc/dcmitype/StillImage" />
        <dc:title>Element 1</dc:title>
      </cc:Work>
    </rdf:RDF>
  </metadata>
  <sodipodi:namedview
     inkscape:current-layer="svg116"
     inkscape:window-maximized="0"
     inkscape:window-y="23"
     inkscape:window-x="0"
     inkscape:cy="5.9127699"
     inkscape:cx="77.420156"
     inkscape:zoom="3.2678828"
     showgrid="false"
     id="namedview118"
     inkscape:window-height="832"
     inkscape:window-width="1901"
     inkscape:pageshadow="2"
     inkscape:pageopacity="0"
     guidetolerance="10"
     gridtolerance="10"
     objecttolerance="10"
     borderopacity="1"
     bordercolor="#666666"
     pagecolor="#ffffff" />
  <defs
     id="defs12">
    <style
       id="style10">.cls-1{fill:#97bf0d;}.cls-2{fill:#fff;}.cls-3{fill:#009ee0;}.cls-4{fill:#f29400;}.cls-5{fill:#ffed00;}.cls-6{fill:#006ab3;}</style>
  </defs>
  <title
     id="title14">Element 1</title>
  <g
     transform="translate(22,2)"
     id="g238">
    <rect
       class="cls-1"
       width="28.35"
       height="28.35"
       id="rect16"
       x="0"
       y="0" />
    <path
       class="cls-2"
       d="M 26,1.42 18,9.15 18.33,2.63 C 20.63,2 24.6,2 26,1.42 Z"
       id="path18" />
    <path
       class="cls-3"
       d="m 12.47,14.44 4.19,-4 0.29,-7.49 a 19.49,19.49 0 0 0 -4.19,1.22 c 0,0 -0.25,10.31 -0.29,10.27 z"
       id="path20" />
    <path
       class="cls-4"
       d="m 7.1,19.47 c 0,0 3.9,-3.59 3.9,-3.64 0,-0.05 0.16,-11 0.16,-11 A 19,19 0 0 0 7.51,7.12 c 0,0 -0.41,12.35 -0.41,12.35 z"
       id="path22" />
    <path
       class="cls-5"
       d="m 2.57,23.83 3.17,-3 L 6.08,8.39 C 3.5,10.88 -0.6,16.93 2.57,23.83 Z"
       id="path24" />
    <path
       class="cls-6"
       d="m 26.93,2.35 -7.74,8 6.52,-0.35 c 0.67,-2.28 0.67,-6.26 1.22,-7.65 z"
       id="path26" />
    <path
       class="cls-2"
       d="m 13.91,15.88 4,-4.19 7.49,-0.29 a 19.43,19.43 0 0 1 -1.23,4.19 c 0,0 -10.3,0.25 -10.26,0.29 z"
       id="path28" />
    <path
       class="cls-2"
       d="m 8.88,21.25 c 0,0 3.59,-3.93 3.64,-3.89 0.05,0.04 11,-0.16 11,-0.16 a 19,19 0 0 1 -2.28,3.64 c 0,0 -12.36,0.41 -12.36,0.41 z"
       id="path30" />
    <path
       class="cls-2"
       d="M 4.52,25.77 7.52,22.6 20,22.27 c -2.53,2.58 -8.58,6.68 -15.48,3.5 z"
       id="path32" />
  </g>
  <g
     transform="translate(-32.185398,27.398707)"
     id="g227">
    <path
       class="cls-6"
       d="M 43.17,10.35 A 3.71,3.71 0 0 0 40.26,9 c -2.71,0 -4.5,2.18 -4.5,4.94 a 4.45,4.45 0 0 0 4.5,4.73 3.71,3.71 0 0 0 3.15,-1.67 l 1.38,1 A 5.6,5.6 0 0 1 40.22,20.13 6.24,6.24 0 0 1 34,13.9 6.13,6.13 0 0 1 40.29,7.42 5.28,5.28 0 0 1 44.54,9.3 Z"
       id="path34" />
    <path
       class="cls-6"
       d="m 46.78,7.73 h 7.79 v 1.54 h -6.16 v 3.62 h 5.73 v 1.54 h -5.73 v 3.89 h 6.46 v 1.54 h -8.1 z"
       id="path36" />
    <path
       class="cls-6"
       d="m 57.2,7.73 h 4.25 c 3.09,0 3.87,1.87 3.87,3.39 0,1.52 -0.78,3.4 -3.87,3.4 h -2.61 v 5.35 H 57.2 Z m 1.64,5.35 H 61 c 1.3,0 2.59,-0.31 2.59,-2 0,-1.69 -1.3,-2 -2.59,-2 h -2.16 z"
       id="path38" />
    <path
       class="cls-6"
       d="M 67.31,7.73 H 69 v 10.6 h 5.54 v 1.54 h -7.23 z"
       id="path40" />
    <path
       class="cls-6"
       d="m 81.66,7.73 h 1.48 l 5.17,12.14 H 86.4 l -1.21,-3 h -5.75 l -1.19,3 h -1.91 z m 2.93,7.7 -2.25,-5.58 v 0 L 80,15.42 Z"
       id="path42" />
    <path
       class="cls-6"
       d="m 91.09,17.33 a 3,3 0 0 0 2.56,1.3 2.24,2.24 0 0 0 2.4,-2 c 0,-2.79 -6,-1.06 -6,-5.79 0,-1.42 1.19,-3.39 4.09,-3.39 a 4.16,4.16 0 0 1 3.48,1.39 L 96.35,10 A 2.53,2.53 0 0 0 94.2,9 c -1.81,0 -2.35,1.1 -2.35,1.85 0,3.07 5.95,1.23 5.95,5.61 0,2.35 -1.88,3.75 -4.19,3.75 a 4.62,4.62 0 0 1 -3.85,-1.68 z"
       id="path44" />
  </g>
</svg>
