<svg xmlns="http://www.w3.org/2000/svg" viewBox="0 0 215.43 28.35"><defs><style>.cls-1{fill:#97bf0d;}.cls-2{fill:#fff;}.cls-3{fill:#009ee0;}.cls-4{fill:#f29400;}.cls-5{fill:#ffed00;}.cls-6{fill:#006ab3;}</style></defs><title>Element 1</title><g id="Ebene_2" data-name="Ebene 2"><g id="Ebene_1-2" data-name="Ebene 1"><rect class="cls-1" width="28.35" height="28.35"/><path class="cls-2" d="M26,1.42,18,9.15l.33-6.52C20.63,2,24.6,2,26,1.42Z"/><path class="cls-3" d="M12.47,14.44l4.19-4,.29-7.49a19.49,19.49,0,0,0-4.19,1.22S12.51,14.48,12.47,14.44Z"/><path class="cls-4" d="M7.1,19.47S11,15.88,11,15.83s.16-11,.16-11A19,19,0,0,0,7.51,7.12S7.1,19.47,7.1,19.47Z"/><path class="cls-5" d="M2.57,23.83l3.17-3L6.08,8.39C3.5,10.88-.6,16.93,2.57,23.83Z"/><path class="cls-6" d="M26.93,2.35l-7.74,8L25.71,10C26.38,7.72,26.38,3.74,26.93,2.35Z"/><path class="cls-2" d="M13.91,15.88l4-4.19,7.49-.29a19.43,19.43,0,0,1-1.23,4.19S13.87,15.84,13.91,15.88Z"/><path class="cls-2" d="M8.88,21.25s3.59-3.93,3.64-3.89,11-.16,11-.16a19,19,0,0,1-2.28,3.64S8.88,21.25,8.88,21.25Z"/><path class="cls-2" d="M4.52,25.77l3-3.17L20,22.27C17.47,24.85,11.42,28.95,4.52,25.77Z"/><path class="cls-6" d="M43.17,4.35A3.71,3.71,0,0,0,40.26,3c-2.71,0-4.5,2.18-4.5,4.94a4.45,4.45,0,0,0,4.5,4.73A3.71,3.71,0,0,0,43.41,11l1.38,1a5.6,5.6,0,0,1-4.57,2.13A6.24,6.24,0,0,1,34,7.9a6.13,6.13,0,0,1,6.29-6.48A5.28,5.28,0,0,1,44.54,3.3Z"/><path class="cls-6" d="M46.78,1.73h7.79V3.27H48.41V6.89h5.73V8.43H48.41v3.89h6.46v1.54h-8.1Z"/><path class="cls-6" d="M57.2,1.73h4.25c3.09,0,3.87,1.87,3.87,3.39s-.78,3.4-3.87,3.4H58.84v5.35H57.2Zm1.64,5.35H61c1.3,0,2.59-.31,2.59-2s-1.3-2-2.59-2H58.84Z"/><path class="cls-6" d="M67.31,1.73H69v10.6h5.54v1.54H67.31Z"/><path class="cls-6" d="M81.66,1.73h1.48l5.17,12.14H86.4l-1.21-3H79.44l-1.19,3H76.34Zm2.93,7.7L82.34,3.85h0L80,9.42Z"/><path class="cls-6" d="M91.09,11.33a3,3,0,0,0,2.56,1.3,2.24,2.24,0,0,0,2.4-2c0-2.79-6-1.06-6-5.79,0-1.42,1.19-3.39,4.09-3.39a4.16,4.16,0,0,1,3.48,1.39L96.35,4A2.53,2.53,0,0,0,94.2,3c-1.81,0-2.35,1.1-2.35,1.85,0,3.07,5.95,1.23,5.95,5.61,0,2.35-1.88,3.75-4.19,3.75a4.62,4.62,0,0,1-3.85-1.68Z"/><path class="cls-6" d="M40.64,25.53a3.21,3.21,0,0,1-2.77,1.4,3.79,3.79,0,0,1-3.86-4,3.79,3.79,0,0,1,3.86-4,3.07,3.07,0,0,1,2.57,1.2l-.57.49a2.36,2.36,0,0,0-2-1,3.13,3.13,0,0,0-3.16,3.38,3.13,3.13,0,0,0,3.16,3.38,2.67,2.67,0,0,0,2.2-1.19Z"/><path class="cls-6" d="M41.85,18.56h.63v8.18h-.63Z"/><path class="cls-6" d="M48.39,25.33c0,.37.05,1.15.05,1.41h-.63c0-.37,0-.78,0-.88h0a1.82,1.82,0,0,1-1.67,1c-1.52,0-1.85-1.06-1.85-2.15v-3h.63v2.94c0,.81.22,1.6,1.22,1.6s1.69-.67,1.69-2v-2.5h.63Z"/><path class="cls-6" d="M50.15,25.46a1.57,1.57,0,0,0,1.41.82,1,1,0,0,0,1.12-.92c0-1.37-2.89-.41-2.89-2.32a1.52,1.52,0,0,1,1.67-1.44,1.77,1.77,0,0,1,1.72.94l-.57.35a1.19,1.19,0,0,0-1.15-.7c-.45,0-1,.28-1,.8,0,1.35,2.89.3,2.89,2.33a1.58,1.58,0,0,1-1.76,1.55,2.13,2.13,0,0,1-2-1Z"/><path class="cls-6" d="M57,22.32H55.62v3.26a.63.63,0,0,0,.67.7,1.84,1.84,0,0,0,.72-.17l.05.58a2.73,2.73,0,0,1-.82.17A1.15,1.15,0,0,1,55,25.58V22.32H53.93v-.58H55V20.3h.63v1.44H57Z"/><path class="cls-6" d="M62.44,25.79a2.37,2.37,0,0,1-2.11,1.07,2.43,2.43,0,0,1-2.47-2.64,2.45,2.45,0,0,1,2.43-2.62,2.25,2.25,0,0,1,2.29,2.34v.45H58.5a1.85,1.85,0,0,0,1.84,1.88A1.94,1.94,0,0,0,62,25.39Zm-.48-2a1.66,1.66,0,0,0-1.69-1.62,1.83,1.83,0,0,0-1.77,1.62Z"/><path class="cls-6" d="M64,23.14c0-.37-.05-1.15-.05-1.41h.63c0,.37,0,.78,0,.88a1.73,1.73,0,0,1,1.55-1,1.46,1.46,0,0,1,.37.05l-.07.64a.77.77,0,0,0-.24,0A1.55,1.55,0,0,0,64.63,24v2.73H64Z"/><path class="cls-6" d="M72.54,21.61a2.5,2.5,0,0,1,2.56,2.63,2.56,2.56,0,1,1-5.12,0A2.5,2.5,0,0,1,72.54,21.61Zm0,4.67a1.91,1.91,0,0,0,1.93-2,1.93,1.93,0,1,0-3.86,0A1.91,1.91,0,0,0,72.54,26.28Z"/><path class="cls-6" d="M76.88,22.32h-1v-.58h1V20.1a1.47,1.47,0,0,1,1.45-1.68,1.72,1.72,0,0,1,.73.13l-.13.56a1.22,1.22,0,0,0-.57-.11c-.58,0-.85.43-.85,1.33v1.4h1.14v.58H77.51v4.41h-.63Z"/><path class="cls-6" d="M82.56,19.07h4.56v.65H83.26v2.73h3.62v.65H83.26v3h4v.65H82.56Z"/><path class="cls-6" d="M89.88,24l-1.74-2.29h.81l1.35,1.89,1.34-1.89h.79L90.71,24l2.09,2.71H92l-1.7-2.26-1.66,2.26h-.76Z"/><path class="cls-6" d="M97.78,26a2.24,2.24,0,0,1-1.79.87,2.5,2.5,0,0,1-2.56-2.63A2.5,2.5,0,0,1,96,21.61a2.36,2.36,0,0,1,1.81.87l-.51.39A1.76,1.76,0,0,0,96,22.19a1.91,1.91,0,0,0-1.93,2,1.91,1.91,0,0,0,1.93,2,1.68,1.68,0,0,0,1.31-.69Z"/><path class="cls-6" d="M103.08,25.79A2.37,2.37,0,0,1,101,26.86a2.43,2.43,0,0,1-2.47-2.64,2.45,2.45,0,0,1,2.43-2.62,2.25,2.25,0,0,1,2.29,2.34v.45H99.13A1.85,1.85,0,0,0,101,26.28a1.94,1.94,0,0,0,1.63-.89Zm-.48-2a1.66,1.66,0,0,0-1.69-1.62,1.83,1.83,0,0,0-1.77,1.62Z"/><path class="cls-6" d="M104.74,18.56h.63v8.18h-.63Z"/><path class="cls-6" d="M107.27,18.56h.63v8.18h-.63Z"/><path class="cls-6" d="M114,25.79a2.37,2.37,0,0,1-2.11,1.07,2.43,2.43,0,0,1-2.47-2.64,2.45,2.45,0,0,1,2.43-2.62,2.25,2.25,0,0,1,2.29,2.34v.45h-4.09a1.85,1.85,0,0,0,1.84,1.88,1.94,1.94,0,0,0,1.63-.89Zm-.48-2a1.66,1.66,0,0,0-1.69-1.62,1.83,1.83,0,0,0-1.77,1.62Z"/><path class="cls-6" d="M115.56,23.14c0-.37-.05-1.15-.05-1.41h.63c0,.37,0,.78,0,.88h0a1.82,1.82,0,0,1,1.66-1c1.52,0,1.85,1.06,1.85,2.15v3h-.63V23.79c0-.81-.22-1.6-1.22-1.6s-1.69.67-1.69,2v2.5h-.63Z"/><path class="cls-6" d="M125.5,26a2.24,2.24,0,0,1-1.79.87,2.5,2.5,0,0,1-2.56-2.63,2.5,2.5,0,0,1,2.56-2.63,2.36,2.36,0,0,1,1.81.87l-.51.39a1.76,1.76,0,0,0-1.31-.67,1.91,1.91,0,0,0-1.93,2,1.91,1.91,0,0,0,1.93,2,1.68,1.68,0,0,0,1.31-.69Z"/><path class="cls-6" d="M130.8,25.79a2.37,2.37,0,0,1-2.11,1.07,2.43,2.43,0,0,1-2.47-2.64,2.45,2.45,0,0,1,2.43-2.62,2.25,2.25,0,0,1,2.29,2.34v.45h-4.09a1.85,1.85,0,0,0,1.84,1.88,1.94,1.94,0,0,0,1.63-.89Zm-.48-2a1.66,1.66,0,0,0-1.69-1.62,1.83,1.83,0,0,0-1.77,1.62Z"/><path class="cls-6" d="M137.39,21.61a2.5,2.5,0,0,1,2.56,2.63,2.56,2.56,0,1,1-5.12,0A2.5,2.5,0,0,1,137.39,21.61Zm0,4.67a1.91,1.91,0,0,0,1.93-2,1.93,1.93,0,1,0-3.86,0A1.91,1.91,0,0,0,137.39,26.28Z"/><path class="cls-6" d="M141.36,23.14c0-.37-.05-1.15-.05-1.41h.63c0,.37,0,.78,0,.88h0a1.81,1.81,0,0,1,1.66-1c1.52,0,1.86,1.06,1.86,2.15v3h-.63V23.79c0-.81-.22-1.6-1.22-1.6s-1.69.67-1.69,2v2.5h-.63Z"/><path class="cls-6" d="M150.15,19.07h2.15c1.05,0,2.4.42,2.4,2a2,2,0,0,1-2.24,2h-1.61v3.64h-.7Zm.7,3.38h1.58c.79,0,1.58-.35,1.58-1.35s-.82-1.37-1.62-1.37h-1.54Z"/><path class="cls-6" d="M156.12,18.56h.63v8.18h-.63Z"/><path class="cls-6" d="M162.33,24.64a15.75,15.75,0,0,0,.09,2.1h-.59a5,5,0,0,1-.06-.81h0a1.76,1.76,0,0,1-1.71.94,1.53,1.53,0,0,1-1.72-1.48c0-1.53,1.74-1.68,2.7-1.68h.74v-.3c0-.87-.59-1.21-1.37-1.21a2.16,2.16,0,0,0-1.49.56l-.37-.44a2.8,2.8,0,0,1,1.85-.7c1.18,0,1.94.54,1.94,1.81Zm-1.27-.41c-1.05,0-2.11.27-2.11,1.13a1,1,0,0,0,1.11.93,1.54,1.54,0,0,0,1.7-1.72v-.34Z"/><path class="cls-6" d="M164,23.14c0-.37-.05-1.15-.05-1.41h.63c0,.37,0,.78,0,.88h0a1.82,1.82,0,0,1,1.66-1c1.52,0,1.85,1.06,1.85,2.15v3h-.63V23.79c0-.81-.22-1.6-1.22-1.6s-1.69.67-1.69,2v2.5H164Z"/><path class="cls-6" d="M172.27,22.32h-1.39v3.26a.63.63,0,0,0,.67.7,1.84,1.84,0,0,0,.72-.17l.05.58a2.73,2.73,0,0,1-.82.17,1.15,1.15,0,0,1-1.25-1.29V22.32h-1.05v-.58h1.05V20.3h.63v1.44h1.39Z"/><path class="cls-6" d="M176.52,25.32a1.88,1.88,0,0,0,1.71,1,1.53,1.53,0,0,0,1.68-1.5c0-2.14-3.85-.89-3.85-3.8a2.17,2.17,0,0,1,2.39-2.1,2.4,2.4,0,0,1,2,1l-.6.44a1.66,1.66,0,0,0-1.45-.76A1.49,1.49,0,0,0,176.75,21c0,2.3,3.85.92,3.85,3.8a2.16,2.16,0,0,1-2.32,2.15,2.78,2.78,0,0,1-2.42-1.16Z"/><path class="cls-6" d="M186.08,26a2.24,2.24,0,0,1-1.79.87,2.5,2.5,0,0,1-2.56-2.63,2.5,2.5,0,0,1,2.56-2.63,2.36,2.36,0,0,1,1.81.87l-.51.39a1.76,1.76,0,0,0-1.31-.67,1.91,1.91,0,0,0-1.93,2,1.91,1.91,0,0,0,1.93,2,1.68,1.68,0,0,0,1.31-.69Z"/><path class="cls-6" d="M187.49,19.27a.49.49,0,1,1-.47.49A.48.48,0,0,1,187.49,19.27Zm-.32,2.47h.63v5h-.63Z"/><path class="cls-6" d="M193.9,25.79a2.37,2.37,0,0,1-2.11,1.07,2.43,2.43,0,0,1-2.47-2.64,2.45,2.45,0,0,1,2.43-2.62A2.25,2.25,0,0,1,194,23.94v.45H190a1.85,1.85,0,0,0,1.84,1.88,1.94,1.94,0,0,0,1.63-.89Zm-.48-2a1.66,1.66,0,0,0-1.69-1.62A1.83,1.83,0,0,0,190,23.81Z"/><path class="cls-6" d="M195.46,23.14c0-.37-.05-1.15-.05-1.41H196c0,.37,0,.78,0,.88h0a1.82,1.82,0,0,1,1.66-1c1.52,0,1.85,1.06,1.85,2.15v3H199V23.79c0-.81-.22-1.6-1.22-1.6s-1.69.67-1.69,2v2.5h-.63Z"/><path class="cls-6" d="M205.4,26a2.24,2.24,0,0,1-1.79.87,2.5,2.5,0,0,1-2.56-2.63,2.5,2.5,0,0,1,2.56-2.63,2.36,2.36,0,0,1,1.81.87l-.51.39a1.75,1.75,0,0,0-1.31-.67,1.91,1.91,0,0,0-1.93,2,1.91,1.91,0,0,0,1.93,2,1.68,1.68,0,0,0,1.31-.69Z"/><path class="cls-6" d="M210.7,25.79a2.37,2.37,0,0,1-2.11,1.07,2.43,2.43,0,0,1-2.47-2.64,2.45,2.45,0,0,1,2.43-2.62,2.25,2.25,0,0,1,2.29,2.34v.45h-4.09a1.85,1.85,0,0,0,1.84,1.88,1.94,1.94,0,0,0,1.63-.89Zm-.48-2a1.66,1.66,0,0,0-1.69-1.62,1.83,1.83,0,0,0-1.77,1.62Z"/><path class="cls-6" d="M212.27,25.46a1.57,1.57,0,0,0,1.41.82,1,1,0,0,0,1.12-.92c0-1.37-2.89-.41-2.89-2.32a1.52,1.52,0,0,1,1.67-1.44,1.77,1.77,0,0,1,1.72.94l-.57.35a1.19,1.19,0,0,0-1.15-.7c-.45,0-1,.28-1,.8,0,1.35,2.89.3,2.89,2.33a1.58,1.58,0,0,1-1.76,1.55,2.13,2.13,0,0,1-2-1Z"/></g></g></svg>